<mxfile host="Electron" modified="2023-09-14T08:44:25.652Z" agent="Mozilla/5.0 (Windows NT 10.0; Win64; x64) AppleWebKit/537.36 (KHTML, like Gecko) draw.io/21.6.5 Chrome/114.0.5735.243 Electron/25.3.1 Safari/537.36" etag="6vvndc8I7V_fVE01pY8A" version="21.6.5" type="device">
  <diagram name="Страница 1" id="x8Lju8UJEoI2VoyNcmlR">
    <mxGraphModel dx="987" dy="669" grid="1" gridSize="10" guides="1" tooltips="1" connect="1" arrows="1" fold="1" page="1" pageScale="1" pageWidth="1169" pageHeight="827" math="0" shadow="0">
      <root>
        <mxCell id="0" />
        <mxCell id="1" parent="0" />
        <mxCell id="_g1JenmA1wuMyI3IltBf-1" value="&lt;font style=&quot;font-size: 14px;&quot;&gt;&lt;b&gt;Сотрудник&lt;/b&gt;&lt;/font&gt;" style="shape=umlActor;verticalLabelPosition=bottom;verticalAlign=top;html=1;outlineConnect=0;labelBorderColor=default;" vertex="1" parent="1">
          <mxGeometry x="860" y="200" width="60" height="110" as="geometry" />
        </mxCell>
        <mxCell id="_g1JenmA1wuMyI3IltBf-4" value="&lt;font style=&quot;font-size: 13px;&quot;&gt;Принять заказ&lt;/font&gt;" style="rounded=1;whiteSpace=wrap;html=1;fillColor=#f8cecc;strokeColor=#b85450;" vertex="1" parent="1">
          <mxGeometry x="610" y="170" width="160" height="80" as="geometry" />
        </mxCell>
        <mxCell id="_g1JenmA1wuMyI3IltBf-6" value="&lt;font style=&quot;font-size: 13px;&quot;&gt;Собирать и тестировать&lt;br&gt;компьютеры&lt;br&gt;&lt;/font&gt;" style="rounded=1;whiteSpace=wrap;html=1;fillColor=#f8cecc;strokeColor=#b85450;" vertex="1" parent="1">
          <mxGeometry x="470" y="270" width="160" height="80" as="geometry" />
        </mxCell>
        <mxCell id="_g1JenmA1wuMyI3IltBf-7" value="&lt;font style=&quot;font-size: 13px;&quot;&gt;Группировать заказы по типам компьютеров&lt;br&gt;&lt;/font&gt;" style="rounded=1;whiteSpace=wrap;html=1;fillColor=#f8cecc;strokeColor=#b85450;" vertex="1" parent="1">
          <mxGeometry x="600" y="374" width="160" height="80" as="geometry" />
        </mxCell>
        <mxCell id="_g1JenmA1wuMyI3IltBf-8" value="&lt;font style=&quot;font-size: 13px;&quot;&gt;упаковывать компьютеры согласно заказам&lt;/font&gt;" style="rounded=1;whiteSpace=wrap;html=1;fillColor=#f8cecc;strokeColor=#b85450;" vertex="1" parent="1">
          <mxGeometry x="780" y="480" width="160" height="80" as="geometry" />
        </mxCell>
        <mxCell id="_g1JenmA1wuMyI3IltBf-9" value="" style="endArrow=classic;html=1;rounded=0;entryX=1;entryY=0.5;entryDx=0;entryDy=0;" edge="1" parent="1" target="_g1JenmA1wuMyI3IltBf-4">
          <mxGeometry width="50" height="50" relative="1" as="geometry">
            <mxPoint x="850" y="240" as="sourcePoint" />
            <mxPoint x="750" y="280" as="targetPoint" />
          </mxGeometry>
        </mxCell>
        <mxCell id="_g1JenmA1wuMyI3IltBf-10" value="" style="endArrow=classic;html=1;rounded=0;entryX=1;entryY=0.5;entryDx=0;entryDy=0;" edge="1" parent="1" target="_g1JenmA1wuMyI3IltBf-6">
          <mxGeometry width="50" height="50" relative="1" as="geometry">
            <mxPoint x="840" y="280" as="sourcePoint" />
            <mxPoint x="780" y="220" as="targetPoint" />
          </mxGeometry>
        </mxCell>
        <mxCell id="_g1JenmA1wuMyI3IltBf-11" value="" style="endArrow=classic;html=1;rounded=0;entryX=1;entryY=0.5;entryDx=0;entryDy=0;" edge="1" parent="1" target="_g1JenmA1wuMyI3IltBf-7">
          <mxGeometry width="50" height="50" relative="1" as="geometry">
            <mxPoint x="840" y="340" as="sourcePoint" />
            <mxPoint x="790" y="230" as="targetPoint" />
          </mxGeometry>
        </mxCell>
        <mxCell id="_g1JenmA1wuMyI3IltBf-12" value="" style="endArrow=classic;html=1;rounded=0;entryX=0.5;entryY=0;entryDx=0;entryDy=0;" edge="1" parent="1" target="_g1JenmA1wuMyI3IltBf-8">
          <mxGeometry width="50" height="50" relative="1" as="geometry">
            <mxPoint x="880" y="360" as="sourcePoint" />
            <mxPoint x="800" y="240" as="targetPoint" />
          </mxGeometry>
        </mxCell>
        <mxCell id="_g1JenmA1wuMyI3IltBf-14" value="&lt;font style=&quot;font-size: 14px;&quot;&gt;&lt;b&gt;Кладовщик&lt;/b&gt;&lt;/font&gt;" style="shape=umlActor;verticalLabelPosition=bottom;verticalAlign=top;html=1;outlineConnect=0;labelBorderColor=default;" vertex="1" parent="1">
          <mxGeometry x="360" y="450" width="60" height="110" as="geometry" />
        </mxCell>
        <mxCell id="_g1JenmA1wuMyI3IltBf-15" value="" style="endArrow=classic;html=1;rounded=0;exitX=0;exitY=0.559;exitDx=0;exitDy=0;exitPerimeter=0;" edge="1" parent="1" source="_g1JenmA1wuMyI3IltBf-8">
          <mxGeometry width="50" height="50" relative="1" as="geometry">
            <mxPoint x="600" y="480" as="sourcePoint" />
            <mxPoint x="440" y="525" as="targetPoint" />
          </mxGeometry>
        </mxCell>
        <mxCell id="_g1JenmA1wuMyI3IltBf-16" value="&lt;font style=&quot;font-size: 13px;&quot;&gt;Отгружать клиентам&lt;br&gt;заказы&lt;br&gt;&lt;/font&gt;" style="rounded=1;whiteSpace=wrap;html=1;fillColor=#f8cecc;strokeColor=#b85450;" vertex="1" parent="1">
          <mxGeometry x="100" y="380" width="160" height="80" as="geometry" />
        </mxCell>
        <mxCell id="_g1JenmA1wuMyI3IltBf-17" value="" style="endArrow=classic;html=1;rounded=0;entryX=0.973;entryY=0.944;entryDx=0;entryDy=0;entryPerimeter=0;" edge="1" parent="1" target="_g1JenmA1wuMyI3IltBf-16">
          <mxGeometry width="50" height="50" relative="1" as="geometry">
            <mxPoint x="350" y="510" as="sourcePoint" />
            <mxPoint x="240" y="430" as="targetPoint" />
          </mxGeometry>
        </mxCell>
        <mxCell id="_g1JenmA1wuMyI3IltBf-18" value="&lt;span style=&quot;font-size: 14px;&quot;&gt;&lt;b&gt;Клиент&lt;/b&gt;&lt;/span&gt;" style="shape=umlActor;verticalLabelPosition=bottom;verticalAlign=top;html=1;outlineConnect=0;labelBorderColor=default;" vertex="1" parent="1">
          <mxGeometry x="300" y="155" width="60" height="110" as="geometry" />
        </mxCell>
        <mxCell id="_g1JenmA1wuMyI3IltBf-19" value="" style="endArrow=classic;html=1;rounded=0;exitX=0.5;exitY=0;exitDx=0;exitDy=0;" edge="1" parent="1" source="_g1JenmA1wuMyI3IltBf-16">
          <mxGeometry width="50" height="50" relative="1" as="geometry">
            <mxPoint x="354" y="364" as="sourcePoint" />
            <mxPoint x="290" y="280" as="targetPoint" />
          </mxGeometry>
        </mxCell>
        <mxCell id="_g1JenmA1wuMyI3IltBf-20" value="" style="endArrow=classic;html=1;rounded=0;exitX=0;exitY=0.5;exitDx=0;exitDy=0;" edge="1" parent="1" source="_g1JenmA1wuMyI3IltBf-4" target="_g1JenmA1wuMyI3IltBf-18">
          <mxGeometry width="50" height="50" relative="1" as="geometry">
            <mxPoint x="600" y="220" as="sourcePoint" />
            <mxPoint x="370" y="220" as="targetPoint" />
          </mxGeometry>
        </mxCell>
      </root>
    </mxGraphModel>
  </diagram>
</mxfile>
